<?xml version="1.0"?>
<svg xmlns="http://www.w3.org/2000/svg" xmlns:xlink="http://www.w3.org/1999/xlink" xmlns:svgjs="http://svgjs.com/svgjs" version="1.1" width="512" height="512" x="0" y="0" viewBox="0 0 128 128" style="enable-background:new 0 0 512 512" xml:space="preserve" class=""><g><g xmlns="http://www.w3.org/2000/svg"><g fill="#eaeaf0"><path d="m57.958 54.917a1.751 1.751 0 0 1 -1.75-1.75v-42.667a1.75 1.75 0 1 1 3.5 0v42.667a1.75 1.75 0 0 1 -1.75 1.75z" fill="#000000" data-original="#eaeaf0" style="" class=""/><path d="m70.042 54.917a1.75 1.75 0 0 1 -1.75-1.75v-42.667a1.75 1.75 0 1 1 3.5 0v42.667a1.751 1.751 0 0 1 -1.75 1.75z" fill="#000000" data-original="#eaeaf0" style="" class=""/><path d="m45.875 59.752a1.751 1.751 0 0 1 -1.75-1.752v-35.375h-11.536a1.751 1.751 0 0 1 -1.75-1.75v-10.375a1.75 1.75 0 0 1 3.5 0v8.623h11.536a1.751 1.751 0 0 1 1.75 1.75v37.127a1.751 1.751 0 0 1 -1.75 1.752z" fill="#000000" data-original="#eaeaf0" style="" class=""/><path d="m82.125 59.752a1.751 1.751 0 0 1 -1.75-1.752v-37.125a1.751 1.751 0 0 1 1.75-1.75h11.536v-8.625a1.75 1.75 0 1 1 3.5 0v10.375a1.751 1.751 0 0 1 -1.75 1.75h-11.536v35.375a1.751 1.751 0 0 1 -1.75 1.752z" fill="#000000" data-original="#eaeaf0" style="" class=""/><circle cx="32.589" cy="9.5" r="3" fill="#000000" data-original="#eaeaf0" style="" class=""/><circle cx="57.958" cy="9.5" r="3" fill="#000000" data-original="#eaeaf0" style="" class=""/><circle cx="70.042" cy="9.5" r="3" fill="#000000" data-original="#eaeaf0" style="" class=""/><circle cx="95.411" cy="9.5" r="3" fill="#000000" data-original="#eaeaf0" style="" class=""/><path d="m117.5 59.708h-42.667a1.75 1.75 0 0 1 0-3.5h42.667a1.75 1.75 0 1 1 0 3.5z" fill="#000000" data-original="#eaeaf0" style="" class=""/><path d="m117.5 71.792h-42.667a1.75 1.75 0 0 1 0-3.5h42.667a1.75 1.75 0 1 1 0 3.5z" fill="#000000" data-original="#eaeaf0" style="" class=""/><path d="m107.125 47.625h-37.125a1.75 1.75 0 0 1 0-3.5h35.377v-11.536a1.751 1.751 0 0 1 1.75-1.75h10.373a1.75 1.75 0 0 1 0 3.5h-8.623v11.536a1.751 1.751 0 0 1 -1.752 1.75z" fill="#000000" data-original="#eaeaf0" style="" class=""/><path d="m117.5 97.161h-10.375a1.751 1.751 0 0 1 -1.75-1.75v-11.536h-35.375a1.75 1.75 0 1 1 0-3.5h37.127a1.751 1.751 0 0 1 1.75 1.75v11.536h8.623a1.75 1.75 0 0 1 0 3.5z" fill="#000000" data-original="#eaeaf0" style="" class=""/><circle cx="118.5" cy="32.589" r="3" fill="#000000" data-original="#eaeaf0" style="" class=""/><circle cx="118.5" cy="57.958" r="3" fill="#000000" data-original="#eaeaf0" style="" class=""/><circle cx="118.5" cy="70.042" r="3" fill="#000000" data-original="#eaeaf0" style="" class=""/><circle cx="118.5" cy="95.411" r="3" fill="#000000" data-original="#eaeaf0" style="" class=""/><path d="m70.042 119.248a1.75 1.75 0 0 1 -1.75-1.75v-42.665a1.75 1.75 0 0 1 3.5 0v42.667a1.751 1.751 0 0 1 -1.75 1.748z" fill="#000000" data-original="#eaeaf0" style="" class=""/><path d="m57.958 119.248a1.751 1.751 0 0 1 -1.75-1.75v-42.665a1.75 1.75 0 0 1 3.5 0v42.667a1.75 1.75 0 0 1 -1.75 1.748z" fill="#000000" data-original="#eaeaf0" style="" class=""/><path d="m95.411 119.248a1.75 1.75 0 0 1 -1.75-1.75v-8.623h-11.536a1.751 1.751 0 0 1 -1.75-1.75v-37.125a1.75 1.75 0 1 1 3.5 0v35.377h11.536a1.751 1.751 0 0 1 1.75 1.75v10.373a1.751 1.751 0 0 1 -1.75 1.748z" fill="#000000" data-original="#eaeaf0" style="" class=""/><path d="m32.589 119.248a1.751 1.751 0 0 1 -1.75-1.75v-10.373a1.751 1.751 0 0 1 1.75-1.75h11.536v-35.375a1.75 1.75 0 0 1 3.5 0v37.127a1.751 1.751 0 0 1 -1.75 1.75h-11.536v8.623a1.75 1.75 0 0 1 -1.75 1.748z" fill="#000000" data-original="#eaeaf0" style="" class=""/><circle cx="95.411" cy="118.5" r="3" fill="#000000" data-original="#eaeaf0" style="" class=""/><circle cx="70.042" cy="118.5" r="3" fill="#000000" data-original="#eaeaf0" style="" class=""/><circle cx="57.958" cy="118.5" r="3" fill="#000000" data-original="#eaeaf0" style="" class=""/><circle cx="32.589" cy="118.5" r="3" fill="#000000" data-original="#eaeaf0" style="" class=""/><path d="m53.167 71.792h-42.667a1.75 1.75 0 1 1 0-3.5h42.667a1.75 1.75 0 0 1 0 3.5z" fill="#000000" data-original="#eaeaf0" style="" class=""/><path d="m53.167 59.708h-42.667a1.75 1.75 0 1 1 0-3.5h42.667a1.75 1.75 0 0 1 0 3.5z" fill="#000000" data-original="#eaeaf0" style="" class=""/><path d="m20.875 97.161h-10.375a1.75 1.75 0 1 1 0-3.5h8.623v-11.536a1.751 1.751 0 0 1 1.75-1.75h37.127a1.75 1.75 0 1 1 0 3.5h-35.375v11.536a1.751 1.751 0 0 1 -1.75 1.75z" fill="#000000" data-original="#eaeaf0" style="" class=""/><path d="m58 47.625h-37.125a1.751 1.751 0 0 1 -1.75-1.75v-11.536h-8.625a1.75 1.75 0 0 1 0-3.5h10.375a1.751 1.751 0 0 1 1.75 1.75v11.536h35.375a1.75 1.75 0 1 1 0 3.5z" fill="#000000" data-original="#eaeaf0" style="" class=""/><circle cx="9.5" cy="95.411" r="3" fill="#000000" data-original="#eaeaf0" style="" class=""/><circle cx="9.5" cy="70.042" r="3" fill="#000000" data-original="#eaeaf0" style="" class=""/><circle cx="9.5" cy="57.958" r="3" fill="#000000" data-original="#eaeaf0" style="" class=""/><circle cx="9.5" cy="32.589" r="3" fill="#000000" data-original="#eaeaf0" style="" class=""/></g><path d="m35.25 35.25h57.5v57.5h-57.5z" fill="#fbb507" data-original="#df6379" style="" class=""/><path d="m44.25 44.25h39.5v39.5h-39.5z" fill="#6eb4b6" transform="matrix(0 1 -1 0 128 0)" data-original="#f4d844" style="" class=""/><path d="m77.75 66.583a1.751 1.751 0 0 1 -1.75-1.75v-9.875a1.75 1.75 0 0 1 3.5 0v9.875a1.751 1.751 0 0 1 -1.75 1.75z" fill="#028389" data-original="#c7b037" style="" class=""/></g></g></svg>
