<?xml version="1.0"?>
<svg xmlns="http://www.w3.org/2000/svg" xmlns:xlink="http://www.w3.org/1999/xlink" xmlns:svgjs="http://svgjs.com/svgjs" version="1.1" width="512" height="512" x="0" y="0" viewBox="0 0 58 58" style="enable-background:new 0 0 512 512" xml:space="preserve" class=""><g><g xmlns="http://www.w3.org/2000/svg" id="Page-1" fill="none" fill-rule="evenodd"><g id="028---RGB-Strips" fill-rule="nonzero"><g fill="#f3d55b"><path id="Shape" d="m5 8c1.1045695 0 2 .8954305 2 2v6.6h-4v-6.6c0-1.1045695.8954305-2 2-2z" fill="#181818" data-original="#f3d55b" style="" class=""/><path id="Shape" d="m13 8c1.1045695 0 2 .8954305 2 2v6.6h-4v-6.6c0-1.1045695.8954305-2 2-2z" fill="#181818" data-original="#f3d55b" style="" class=""/><path id="Shape" d="m53 41.014c1.1045695 0 2 .8954305 2 2v6.986h-4v-6.986c0-1.1045695.8954305-2 2-2z" transform="matrix(-1 0 0 -1 106 91.014)" fill="#181818" data-original="#f3d55b" style="" class=""/><path id="Shape" d="m45 41.014c1.1045695 0 2 .8954305 2 2v6.986h-4v-6.986c0-1.1045695.8954305-2 2-2z" transform="matrix(-1 0 0 -1 90 91.014)" fill="#181818" data-original="#f3d55b" style="" class=""/></g><path id="Shape" d="m40 0 2.481 15-2.481 15-22 28-3-16 3-14z" fill="#0d1010" data-original="#7f8c8d" style="" class=""/><path id="Shape" d="m27 32.55c-.3826506-.0004506-.7314949-.2192223-.8985241-.5634939-.1670291-.3442716-.1229544-.7536746.1135241-1.0545061l5-6.369c.2180665-.2893353.5755763-.4380887.9345225-.388838.3589461.0492507.663177.2888011.7952526.6261792.1320757.3373781.0713348.7198064-.1587751.9996588l-5 6.369c-.1897534.2407604-.4794516.3811866-.786.381z" fill="#56595e" data-original="#56595e" style="" class=""/><path id="Shape" d="m16.122 46.388c-.3826506-.0004506-.7314949-.2192223-.8985241-.5634939-.1670291-.3442716-.1229544-.7536746.1135241-1.0545061l6.877-8.748c.3444593-.4233236.9647158-.4922834 1.393744-.1549559s.5083573.9563432.178256 1.3909559l-6.877 8.748c-.1897691.2414117-.4799303.3822523-.787.382z" fill="#56595e" data-original="#56595e" style="" class=""/><path id="Shape" d="m36 21.09c-.3826506-.0004506-.7314949-.2192223-.8985241-.5634939-.1670291-.3442716-.1229544-.7536746.1135241-1.0545061l5.48-6.974c.3430449-.4275577.9663575-.4992495 1.3975137-.1607385.4311562.3385111.5094258.9610319.1754863 1.3957385l-5.481 6.975c-.1897691.2414117-.4799303.3822523-.787.382z" fill="#56595e" data-original="#56595e" style="" class=""/><path id="Shape" d="m18 16v42h-13c-1.32608245 0-2.59785201-.5267842-3.53553391-1.4644661-.93768189-.9376819-1.46446609-2.2094515-1.46446609-3.5355339v-37c0-.5522847.44771525-1 1-1h16c.5522847 0 1 .4477153 1 1z" fill="#bdc3c7" data-original="#bdc3c7" style="" class=""/><path id="Shape" d="m9 56c-.55228475 0-1-.4477153-1-1v-3c0-.5522847.44771525-1 1-1s1 .4477153 1 1v3c0 .5522847-.44771525 1-1 1z" fill="#0d1010" data-original="#7f8c8d" style="" class=""/><path id="Shape" d="m9 43c-.55228475 0-1-.4477153-1-1v-3c0-.5522847.44771525-1 1-1s1 .4477153 1 1v3c0 .5522847-.44771525 1-1 1z" fill="#0d1010" data-original="#7f8c8d" style="" class=""/><path id="Shape" d="m9 36c-.55228475 0-1-.4477153-1-1v-3c0-.5522847.44771525-1 1-1s1 .4477153 1 1v3c0 .5522847-.44771525 1-1 1z" fill="#0d1010" data-original="#7f8c8d" style="" class=""/><path id="Shape" d="m9 23c-.55228475 0-1-.4477153-1-1v-3c0-.5522847.44771525-1 1-1s1 .4477153 1 1v3c0 .5522847-.44771525 1-1 1z" fill="#0d1010" data-original="#7f8c8d" style="" class=""/><path id="Shape" d="m58 5v37c0 .5522847-.4477153 1-1 1h-16c-.5522847 0-1-.4477153-1-1v-42h13c1.3260824 0 2.597852.5267842 3.5355339 1.46446609.9376819.9376819 1.4644661 2.20945146 1.4644661 3.53553391z" fill="#bdc3c7" data-original="#bdc3c7" style="" class=""/><path id="Shape" d="m49 7c-.5522847 0-1-.44771525-1-1v-3c0-.55228475.4477153-1 1-1s1 .44771525 1 1v3c0 .55228475-.4477153 1-1 1z" fill="#0d1010" data-original="#7f8c8d" style="" class=""/><path id="Shape" d="m49 20c-.5522847 0-1-.4477153-1-1v-3c0-.5522847.4477153-1 1-1s1 .4477153 1 1v3c0 .5522847-.4477153 1-1 1z" fill="#0d1010" data-original="#7f8c8d" style="" class=""/><path id="Shape" d="m49 27c-.5522847 0-1-.4477153-1-1v-3c0-.5522847.4477153-1 1-1s1 .4477153 1 1v3c0 .5522847-.4477153 1-1 1z" fill="#0d1010" data-original="#7f8c8d" style="" class=""/><path id="Shape" d="m49 40c-.5522847 0-1-.4477153-1-1v-3c0-.5522847.4477153-1 1-1s1 .4477153 1 1v3c0 .5522847-.4477153 1-1 1z" fill="#0d1010" data-original="#7f8c8d" style="" class=""/><rect id="Rectangle-path" fill="#95a5a5" height="10" rx="1" width="10" x="4" y="22" data-original="#95a5a5" style="" class=""/><circle id="Oval" cx="9" cy="27" fill="#f3d55b" r="2" data-original="#ecf0f1" style="" class=""/><rect id="Rectangle-path" fill="#95a5a5" height="10" rx="1" width="10" x="4" y="42" data-original="#95a5a5" style="" class=""/><circle id="Oval" cx="9" cy="47" fill="#f3d55b" r="2" data-original="#ecf0f1" style="" class=""/><rect id="Rectangle-path" fill="#95a5a5" height="10" rx="1" transform="matrix(-1 0 0 -1 98 22)" width="10" x="44" y="6" data-original="#95a5a5" style="" class=""/><circle id="Oval" cx="49" cy="11" fill="#f3d55b" r="2" data-original="#ecf0f1" style="" class=""/><rect id="Rectangle-path" fill="#95a5a5" height="10" rx="1" transform="matrix(-1 0 0 -1 98 62)" width="10" x="44" y="26" data-original="#95a5a5" style="" class=""/><circle id="Oval" cx="49" cy="31" fill="#f3d55b" r="2" data-original="#ecf0f1" style="" class=""/></g></g></g></svg>
